# xmcd
#
# Track frame offsets: 
#        150
#        19842
#        41034
#        59039
#        76253
#        94841
#        116681
#        129740
#        143414
#        156503
#        178756
#        198464
#        219777
#        233302
#        251243
#        266528
#        282826
#        299728
#        324242
#        337120
#
# Disc length: 4605 seconds
#
# Revision: 0
# Processed by: cddbd v1.5.2PL0 Copyright (c) Steve Scherf et al.
# Submitted via: ExactAudioCopy v1.1
#
DISCID=3011fb14
DTITLE=Various Artist - 1000 Klassiekers Radio 2 Vol. 05 - CD 2
DYEAR=2013
DGENRE=Pop
TTITLE0=Whitney Houston - My Love Is Your Love
TTITLE1=Sister Sledge - Lost In Music
TTITLE2=Roxette - Joyride
TTITLE3=Clouseau - Daar Gaat Ze
TTITLE4=Axelle Red - Parce Que C'Est Toi
TTITLE5=Earth, Wind and Fire With The Emotions - Boogie Wonderland
TTITLE6=Raymond Van Het Groenewoud - ChaChaCha
TTITLE7=Shocking Blue - Venus
TTITLE8=Middle Of The Road - Sacramento
TTITLE9=De Kreuners - Layla (1991)
TTITLE10=The Mavericks - Dance The Night Away
TTITLE11=Kool and The Gang - Get Down On It
TTITLE12=The Four Tops - Reach Out I'll Be There
TTITLE13=Irene Cara - Flashdance ...What A Feeling
TTITLE14=The Style Council - Shout To The Top!
TTITLE15=Hervé Vilard - Capri C'Est Fini
TTITLE16=Harold Melvin and The Blue Notes - The Love I Lost
TTITLE17=Dave Brubeck Quartet - Take Five
TTITLE18=Aretha Franklin - Walk On By
TTITLE19=Jerry Lee Lewis - Great Balls Of Fire
EXTD=
EXTT0=
EXTT1=
EXTT2=
EXTT3=
EXTT4=
EXTT5=
EXTT6=
EXTT7=
EXTT8=
EXTT9=
EXTT10=
EXTT11=
EXTT12=
EXTT13=
EXTT14=
EXTT15=
EXTT16=
EXTT17=
EXTT18=
EXTT19=
PLAYORDER=
